<svg width="181" height="176" viewBox="0 0 181 176" fill="none" xmlns="http://www.w3.org/2000/svg">
<path d="M60.2997 141.535C60.2997 142.262 59.4637 142.844 58.4096 142.844C57.2102 142.953 56.3742 142.371 56.3742 141.535C56.3742 140.808 57.2102 140.227 58.2643 140.227C59.3547 140.118 60.2997 140.699 60.2997 141.535ZM48.9958 139.9C48.7413 140.627 49.4683 141.463 50.5587 141.681C51.5037 142.044 52.5941 141.681 52.8122 140.954C53.0303 140.227 52.3397 139.391 51.2493 139.064C50.3043 138.809 49.2502 139.173 48.9958 139.9ZM65.0611 139.282C64.0071 139.536 63.2801 140.227 63.3892 141.063C63.4982 141.79 64.4432 142.262 65.5337 142.008C66.5877 141.753 67.3147 141.063 67.2056 140.336C67.0966 139.645 66.1152 139.173 65.0611 139.282ZM88.9775 0C38.5642 0 0 38.2734 0 88.6867C0 128.996 25.3702 163.489 61.6082 175.629C66.2606 176.465 67.8962 173.593 67.8962 171.231C67.8962 168.977 67.7872 156.547 67.7872 148.914C67.7872 148.914 42.3443 154.366 37.0013 138.082C37.0013 138.082 32.8577 127.505 26.8968 124.779C26.8968 124.779 18.5733 119.073 27.4783 119.182C27.4783 119.182 36.5287 119.909 41.5083 128.559C49.4683 142.589 62.8076 138.555 68.0053 136.156C68.8412 130.34 71.2038 126.306 73.8208 123.907C53.5028 121.653 33.0031 118.709 33.0031 83.7435C33.0031 73.7481 35.7655 68.7322 41.581 62.3351C40.636 59.9726 37.5465 50.2316 42.526 37.6555C50.1225 35.2929 67.6054 47.4692 67.6054 47.4692C74.8748 45.4338 82.6894 44.3797 90.4314 44.3797C98.1733 44.3797 105.988 45.4338 113.257 47.4692C113.257 47.4692 130.74 35.2566 138.337 37.6555C143.316 50.2679 140.227 59.9726 139.282 62.3351C145.097 68.7685 148.659 73.7844 148.659 83.7435C148.659 118.818 127.251 121.617 106.933 123.907C110.277 126.778 113.112 132.23 113.112 140.772C113.112 153.021 113.003 168.178 113.003 171.158C113.003 173.521 114.675 176.392 119.291 175.556C155.638 163.489 180.281 128.996 180.281 88.6867C180.281 38.2734 139.391 0 88.9775 0ZM35.3293 125.361C34.8568 125.724 34.9658 126.56 35.5837 127.251C36.1653 127.832 37.0013 128.087 37.4738 127.614C37.9463 127.251 37.8372 126.415 37.2193 125.724C36.6378 125.143 35.8018 124.888 35.3293 125.361ZM31.4038 122.417C31.1494 122.889 31.5129 123.471 32.2398 123.834C32.8213 124.198 33.5483 124.089 33.8027 123.58C34.0571 123.107 33.6937 122.526 32.9667 122.162C32.2398 121.944 31.6582 122.053 31.4038 122.417ZM43.1802 135.356C42.5987 135.829 42.8168 136.919 43.6528 137.61C44.4887 138.446 45.5428 138.555 46.0153 137.973C46.4878 137.501 46.2697 136.41 45.5428 135.72C44.7432 134.884 43.6528 134.775 43.1802 135.356ZM39.0367 130.013C38.4551 130.377 38.4551 131.322 39.0367 132.158C39.6182 132.994 40.5996 133.357 41.0721 132.994C41.6537 132.521 41.6537 131.576 41.0721 130.74C40.5633 129.904 39.6182 129.541 39.0367 130.013Z" fill="#1b5f6f"/>
</svg>
