<svg width="181" height="181" viewBox="0 0 181 181" fill="none" xmlns="http://www.w3.org/2000/svg">
<path fill-rule="evenodd" clip-rule="evenodd" d="M52.9776 0.540843C62.5926 0.100138 65.6574 0 90.1406 0C114.628 0 117.688 0.105137 127.298 0.540843C136.898 0.97655 143.454 2.50394 149.188 4.73238C155.202 6.99663 160.649 10.5443 165.152 15.1286C169.737 19.631 173.285 25.0792 175.549 31.0935C177.777 36.8274 179.299 43.3827 179.74 52.9776C180.181 62.5926 180.281 65.6574 180.281 90.1406C180.281 114.624 180.176 117.688 179.74 127.304C179.304 136.898 177.777 143.454 175.549 149.188C173.245 155.112 170.16 160.145 165.152 165.152C160.65 169.737 155.202 173.285 149.188 175.549C143.454 177.777 136.898 179.299 127.304 179.74C117.688 180.181 114.624 180.281 90.1406 180.281C65.6574 180.281 62.5926 180.176 52.9776 179.74C43.3827 179.304 36.8274 177.777 31.0935 175.549C25.1692 173.245 20.1364 170.16 15.1286 165.152C10.5435 160.65 6.99556 155.202 4.73238 149.188C2.50394 143.454 0.981549 136.898 0.540843 127.304C0.100138 117.688 0 114.628 0 90.1406C0 65.6524 0.105137 62.5926 0.540843 52.9827C0.97655 43.3827 2.50394 36.8274 4.73238 31.0935C6.99663 25.0797 10.5443 19.6316 15.1286 15.1286C19.6309 10.5435 25.0792 6.99556 31.0935 4.73238C36.8274 2.50394 43.3827 0.981549 52.9776 0.540843ZM126.567 16.7661C117.062 16.3354 114.208 16.2403 90.1406 16.2403C66.073 16.2403 63.2186 16.3354 53.7138 16.7661C44.9251 17.1668 40.1526 18.634 36.9776 19.871C32.7711 21.5035 29.7664 23.4565 26.6115 26.6115C23.4616 29.7664 21.5035 32.7711 19.871 36.9776C18.634 40.1526 17.1668 44.9251 16.7661 53.7138C16.3354 63.2186 16.2403 66.073 16.2403 90.1406C16.2403 114.208 16.3354 117.062 16.7661 126.567C17.1668 135.356 18.634 140.128 19.871 143.304C21.3151 147.219 23.6184 150.761 26.6115 153.67C29.5197 156.663 33.062 158.966 36.9776 160.41C40.1526 161.647 44.9251 163.114 53.7138 163.515C63.2186 163.946 66.068 164.041 90.1406 164.041C114.213 164.041 117.062 163.946 126.567 163.515C135.356 163.114 140.128 161.647 143.304 160.41C147.51 158.778 150.515 156.825 153.67 153.67C156.663 150.762 158.966 147.219 160.41 143.304C161.647 140.128 163.114 135.356 163.515 126.567C163.946 117.062 164.041 114.208 164.041 90.1406C164.041 66.073 163.946 63.2186 163.515 53.7138C163.114 44.9251 161.647 40.1526 160.41 36.9776C158.778 32.7711 156.825 29.7664 153.67 26.6115C150.515 23.4616 147.51 21.5035 143.304 19.871C140.128 18.634 135.356 17.1668 126.567 16.7661ZM78.6313 117.928C82.2803 119.44 86.1908 120.217 90.1406 120.217C98.118 120.217 105.768 117.048 111.408 111.408C117.049 105.768 120.218 98.1172 120.218 90.1406C120.218 82.164 117.049 74.5135 111.408 68.873C105.768 63.2325 98.118 60.0636 90.1406 60.0636C86.1908 60.0636 82.2803 60.8416 78.6313 62.3531C74.9814 63.8646 71.6661 66.08 68.8732 68.873C66.0803 71.6659 63.8648 74.9814 62.3534 78.6304C60.8419 82.2795 60.064 86.1908 60.064 90.1406C60.064 94.0904 60.8419 98.0017 62.3534 101.651C63.8648 105.3 66.0803 108.615 68.8732 111.408C71.6661 114.201 74.9814 116.417 78.6313 117.928ZM57.379 57.3787C66.068 48.6897 77.8528 43.8082 90.1406 43.8082C102.429 43.8082 114.214 48.6897 122.903 57.3787C131.591 66.0676 136.473 77.8528 136.473 90.1406C136.473 102.428 131.591 114.213 122.903 122.903C114.214 131.591 102.429 136.473 90.1406 136.473C77.8528 136.473 66.068 131.591 57.379 122.903C48.69 114.213 43.8086 102.428 43.8086 90.1406C43.8086 77.8528 48.69 66.0676 57.379 57.3787ZM146.746 50.7113C148.8 48.6573 149.954 45.8716 149.954 42.967C149.954 40.0622 148.8 37.2766 146.746 35.2227C144.692 33.1688 141.907 32.0149 139.002 32.0149C136.098 32.0149 133.311 33.1688 131.258 35.2227C129.203 37.2766 128.05 40.0622 128.05 42.967C128.05 45.8716 129.203 48.6573 131.258 50.7113C133.311 52.7652 136.098 53.9191 139.002 53.9191C141.907 53.9191 144.692 52.7652 146.746 50.7113Z" fill="#1b5f6f"/>
</svg>
