<svg width="181" height="181" viewBox="0 0 181 181" fill="none" xmlns="http://www.w3.org/2000/svg">
<path d="M113.802 63.0984C108.045 63.0787 102.34 64.1943 97.0147 66.3816C91.689 68.5689 86.8468 71.7848 82.7653 75.8454C78.6838 79.906 75.443 84.7316 73.2283 90.0459C71.0137 95.3603 69.8687 101.059 69.8589 106.817V150.985C69.8589 152.779 70.5712 154.498 71.839 155.766C73.1069 157.034 74.8264 157.746 76.6194 157.746H92.394C94.187 157.746 95.9066 157.034 97.1745 155.766C98.4423 154.498 99.1546 152.779 99.1546 150.985V106.817C99.1531 104.769 99.5832 102.744 100.417 100.874C101.25 99.0033 102.469 97.3296 103.993 95.9617C105.516 94.5939 107.311 93.5625 109.26 92.9348C111.21 92.3072 113.269 92.0973 115.305 92.319C118.956 92.7788 122.311 94.5625 124.734 97.3316C127.157 100.101 128.479 103.663 128.45 107.342V150.985C128.45 152.779 129.163 154.498 130.43 155.766C131.698 157.034 133.418 157.746 135.211 157.746H150.985C152.778 157.746 154.498 157.034 155.766 155.766C157.034 154.498 157.746 152.779 157.746 150.985V106.817C157.736 101.059 156.591 95.3603 154.376 90.0459C152.162 84.7316 148.921 79.906 144.84 75.8454C140.758 71.7848 135.916 68.5689 130.59 66.3816C125.264 64.1943 119.56 63.0787 113.802 63.0984Z" fill="#1b5f6f"/>
<path d="M49.5773 69.859H29.2957C25.562 69.859 22.5352 72.8858 22.5352 76.6195V150.985C22.5352 154.719 25.562 157.746 29.2957 157.746H49.5773C53.3111 157.746 56.3379 154.719 56.3379 150.985V76.6195C56.3379 72.8858 53.3111 69.859 49.5773 69.859Z" fill="#1b5f6f"/>
<path d="M39.4365 56.3379C48.7709 56.3379 56.3379 48.7709 56.3379 39.4365C56.3379 30.1022 48.7709 22.5352 39.4365 22.5352C30.1022 22.5352 22.5352 30.1022 22.5352 39.4365C22.5352 48.7709 30.1022 56.3379 39.4365 56.3379Z" fill="#1b5f6f"/>
</svg>
